<?xml version="1.0" encoding="iso-8859-1"?>
<!-- Generator: Adobe Illustrator 15.1.0, SVG Export Plug-In . SVG Version: 6.00 Build 0)  -->
<!DOCTYPE svg PUBLIC "-//W3C//DTD SVG 1.1//EN" "http://www.w3.org/Graphics/SVG/1.1/DTD/svg11.dtd">
<svg xmlns="http://www.w3.org/2000/svg" xmlns:xlink="http://www.w3.org/1999/xlink" version="1.1" id="Layer_1" x="0px" y="0px" width="512" height="512" viewBox="0 0 128 128" style="enable-background:new 0 0 128 128;" xml:space="preserve">
<g>
	<circle style="fill:#2D4452;" cx="64" cy="64" r="64"/>
	<path style="fill:#E16B5A;" d="M46,90c0,3.3-2.7,6-6,6H16c-3.3,0-6-2.7-6-6V62c0-3.3,2.7-6,6-6h24c3.3,0,6,2.7,6,6V90z"/>
	<path style="fill:#CC6152;" d="M40,56H16c-3.3,0-6,2.7-6,6v4c0-3.3,2.7-6,6-6h24c3.3,0,6,2.7,6,6v-4C46,58.7,43.3,56,40,56z"/>
	<path style="fill:#B3B3B3;" d="M40,100c0,3.3-2.7,6-6,6H22c-3.3,0-6-2.7-6-6V72c0-3.3,2.7-6,6-6h12c3.3,0,6,2.7,6,6V100z"/>
	<path style="fill:#233540;" d="M34,66H22c-3.3,0-6,2.7-6,6v4c0-3.3,2.7-6,6-6h12c3.3,0,6,2.7,6,6v-4C40,68.7,37.3,66,34,66z"/>
	<path style="fill:#99602E;" d="M16,93c0,1.1-0.9,2-2,2h-2c-1.1,0-2-0.9-2-2V73c0-1.1,0.9-2,2-2h2c1.1,0,2,0.9,2,2V93z"/>
	<path style="fill:#8C582A;" d="M14,71h-2c-1.1,0-2,0.9-2,2v2c0-1.1,0.9-2,2-2h2c1.1,0,2,0.9,2,2v-2C16,71.9,15.1,71,14,71z"/>
	<path style="fill:#99602E;" d="M46,93c0,1.1-0.9,2-2,2h-2c-1.1,0-2-0.9-2-2V73c0-1.1,0.9-2,2-2h2c1.1,0,2,0.9,2,2V93z"/>
	<path style="fill:#8C582A;" d="M44,71h-2c-1.1,0-2,0.9-2,2v2c0-1.1,0.9-2,2-2h2c1.1,0,2,0.9,2,2v-2C46,71.9,45.1,71,44,71z"/>
	<path style="fill:#E16B5A;" d="M7.059,93.206C7.651,92.275,8,91.178,8,90V62c0-3.3-2.7-6-6-6H0.516C0.188,58.623,0,61.289,0,64   C0,74.525,2.557,84.447,7.059,93.206z"/>
	<path style="fill:#CC6152;" d="M2,60c3.3,0,6,2.7,6,6v-4c0-3.3-2.7-6-6-6H0.516c-0.164,1.322-0.295,2.654-0.379,4H2z"/>
	<path style="fill:#B3B3B3;" d="M0.109,67.646C0.346,71.863,0.984,75.971,2,79.93V72C2,70.289,1.27,68.743,0.109,67.646z"/>
	<path style="fill:#233540;" d="M0.109,67.646c0.084,1.494,0.23,2.969,0.416,4.434C1.439,73.133,2,74.503,2,76v-4   C2,70.289,1.27,68.743,0.109,67.646z"/>
	<path style="fill:#99602E;" d="M6,71H4c-1.1,0-2,0.9-2,2v6.93c1.288,5.028,3.176,9.814,5.575,14.285C7.838,93.877,8,93.458,8,93V73   C8,71.9,7.1,71,6,71z"/>
	<path style="fill:#8C582A;" d="M6,71H4c-1.1,0-2,0.9-2,2v2c0-1.1,0.9-2,2-2h2c1.1,0,2,0.9,2,2v-2C8,71.9,7.1,71,6,71z"/>
	<path style="fill:#E16B5A;" d="M84,90c0,3.3-2.7,6-6,6H54c-3.3,0-6-2.7-6-6V62c0-3.3,2.7-6,6-6h24c3.3,0,6,2.7,6,6V90z"/>
	<path style="fill:#CC6152;" d="M78,56H54c-3.3,0-6,2.7-6,6v4c0-3.3,2.7-6,6-6h24c3.3,0,6,2.7,6,6v-4C84,58.7,81.3,56,78,56z"/>
	<path style="fill:#B3B3B3;" d="M78,100c0,3.3-2.7,6-6,6H60c-3.3,0-6-2.7-6-6V72c0-3.3,2.7-6,6-6h12c3.3,0,6,2.7,6,6V100z"/>
	<path style="fill:#233540;" d="M72,66H60c-3.3,0-6,2.7-6,6v4c0-3.3,2.7-6,6-6h12c3.3,0,6,2.7,6,6v-4C78,68.7,75.3,66,72,66z"/>
	<path style="fill:#99602E;" d="M54,93c0,1.1-0.9,2-2,2h-2c-1.1,0-2-0.9-2-2V73c0-1.1,0.9-2,2-2h2c1.1,0,2,0.9,2,2V93z"/>
	<path style="fill:#8C582A;" d="M52,71h-2c-1.1,0-2,0.9-2,2v2c0-1.1,0.9-2,2-2h2c1.1,0,2,0.9,2,2v-2C54,71.9,53.1,71,52,71z"/>
	<path style="fill:#99602E;" d="M84,93c0,1.1-0.9,2-2,2h-2c-1.1,0-2-0.9-2-2V73c0-1.1,0.9-2,2-2h2c1.1,0,2,0.9,2,2V93z"/>
	<path style="fill:#8C582A;" d="M82,71h-2c-1.1,0-2,0.9-2,2v2c0-1.1,0.9-2,2-2h2c1.1,0,2,0.9,2,2v-2C84,71.9,83.1,71,82,71z"/>
	<path style="fill:#E16B5A;" d="M122,62c0-3.3-2.7-6-6-6H92c-3.3,0-6,2.7-6,6v28c0,3.3,2.7,6,6,6h24   c1.867,0,3.542-0.866,4.645-2.215c0.398-0.756,0.789-1.518,1.158-2.291C121.927,91.016,122,90.518,122,90V62z"/>
	<path style="fill:#CC6152;" d="M116,56H92c-3.3,0-6,2.7-6,6v4c0-3.3,2.7-6,6-6h24c3.3,0,6,2.7,6,6v-4C122,58.7,119.3,56,116,56z"/>
	<path style="fill:#B3B3B3;" d="M116,100V72c0-3.3-2.7-6-6-6H98c-3.3,0-6,2.7-6,6v28c0,3.3,2.7,6,6,6h12   c1.069,0,2.074-0.287,2.946-0.783c0.984-1.169,1.927-2.374,2.828-3.611C115.918,101.093,116,100.557,116,100z"/>
	<path style="fill:#233540;" d="M110,66H98c-3.3,0-6,2.7-6,6v4c0-3.3,2.7-6,6-6h12c3.3,0,6,2.7,6,6v-4C116,68.7,113.3,66,110,66z"/>
	<path style="fill:#99602E;" d="M92,93c0,1.1-0.9,2-2,2h-2c-1.1,0-2-0.9-2-2V73c0-1.1,0.9-2,2-2h2c1.1,0,2,0.9,2,2V93z"/>
	<path style="fill:#8C582A;" d="M90,71h-2c-1.1,0-2,0.9-2,2v2c0-1.1,0.9-2,2-2h2c1.1,0,2,0.9,2,2v-2C92,71.9,91.1,71,90,71z"/>
	<path style="fill:#99602E;" d="M122,73c0-1.1-0.9-2-2-2h-2c-1.1,0-2,0.9-2,2v20c0,1.1,0.9,2,2,2h1.991   c0.714-1.287,1.383-2.602,2.009-3.941V73z"/>
	<path style="fill:#8C582A;" d="M120,71h-2c-1.1,0-2,0.9-2,2v2c0-1.1,0.9-2,2-2h2c1.1,0,2,0.9,2,2v-2C122,71.9,121.1,71,120,71z"/>
	<path style="fill:#E16B5A;" d="M124,62v24.3c2.582-6.944,4-14.456,4-22.3c0-2.528-0.163-5.018-0.448-7.469   C125.465,57.473,124,59.572,124,62z"/>
	<path style="fill:#CC6152;" d="M127.552,56.531C125.465,57.473,124,59.572,124,62v4c0-2.558,1.626-4.75,3.893-5.608   C127.82,59.093,127.7,57.808,127.552,56.531z"/>
	<path style="fill:#99602E;" d="M127.611,71H126c-1.1,0-2,0.9-2,2v13.3C125.804,81.451,127.032,76.323,127.611,71z"/>
	<path style="fill:#8C582A;" d="M126,71c-1.1,0-2,0.9-2,2v2c0-1.1,0.9-2,2-2h1.357c0.094-0.664,0.182-1.33,0.254-2H126z"/>
	<path style="fill:#E16B5A;" d="M20,78H1.555c3.339,14.953,11.899,27.932,23.683,36.915C25.721,114.05,26,113.057,26,112V84   C26,80.7,23.3,78,20,78z"/>
	<path style="fill:#CC6152;" d="M20,78H1.555c0.303,1.35,0.646,2.684,1.029,4H20c3.3,0,6,2.7,6,6v-4C26,80.7,23.3,78,20,78z"/>
	<path style="fill:#B3B3B3;" d="M14,88H4.67c3.468,8.563,8.732,16.199,15.33,22.451V94C20,90.7,17.3,88,14,88z"/>
	<path style="fill:#233540;" d="M14,88H4.67c0.549,1.355,1.134,2.691,1.771,4H14c3.3,0,6,2.7,6,6v-4C20,90.7,17.3,88,14,88z"/>
	<path style="fill:#99602E;" d="M24,93h-2c-1.1,0-2,0.9-2,2v15.451c1.88,1.781,3.858,3.458,5.943,5.002   C25.978,115.307,26,115.156,26,115V95C26,93.9,25.1,93,24,93z"/>
	<path style="fill:#8C582A;" d="M24,93h-2c-1.1,0-2,0.9-2,2v2c0-1.1,0.9-2,2-2h2c1.1,0,2,0.9,2,2v-2C26,93.9,25.1,93,24,93z"/>
	<path style="fill:#E16B5A;" d="M64,112c0,3.3-2.7,6-6,6H34c-3.3,0-6-2.7-6-6V84c0-3.3,2.7-6,6-6h24c3.3,0,6,2.7,6,6V112z"/>
	<path style="fill:#CC6152;" d="M58,78H34c-3.3,0-6,2.7-6,6v4c0-3.3,2.7-6,6-6h24c3.3,0,6,2.7,6,6v-4C64,80.7,61.3,78,58,78z"/>
	<path style="fill:#B3B3B3;" d="M52,88H40c-3.3,0-6,2.7-6,6v26.535c6.354,3.379,13.344,5.718,20.746,6.791   C56.673,126.324,58,124.311,58,122V94C58,90.7,55.3,88,52,88z"/>
	<path style="fill:#233540;" d="M52,88H40c-3.3,0-6,2.7-6,6v4c0-3.3,2.7-6,6-6h12c3.3,0,6,2.7,6,6v-4C58,90.7,55.3,88,52,88z"/>
	<path style="fill:#99602E;" d="M34,115c0,1.1-0.9,2-2,2h-2c-1.1,0-2-0.9-2-2V95c0-1.1,0.9-2,2-2h2c1.1,0,2,0.9,2,2V115z"/>
	<path style="fill:#8C582A;" d="M32,93h-2c-1.1,0-2,0.9-2,2v2c0-1.1,0.9-2,2-2h2c1.1,0,2,0.9,2,2v-2C34,93.9,33.1,93,32,93z"/>
	<path style="fill:#99602E;" d="M64,115c0,1.1-0.9,2-2,2h-2c-1.1,0-2-0.9-2-2V95c0-1.1,0.9-2,2-2h2c1.1,0,2,0.9,2,2V115z"/>
	<path style="fill:#8C582A;" d="M62,93h-2c-1.1,0-2,0.9-2,2v2c0-1.1,0.9-2,2-2h2c1.1,0,2,0.9,2,2v-2C64,93.9,63.1,93,62,93z"/>
	<path style="fill:#E16B5A;" d="M102,112c0,3.3-2.7,6-6,6H72c-3.3,0-6-2.7-6-6V84c0-3.3,2.7-6,6-6h24c3.3,0,6,2.7,6,6V112z"/>
	<path style="fill:#CC6152;" d="M96,78H72c-3.3,0-6,2.7-6,6v4c0-3.3,2.7-6,6-6h24c3.3,0,6,2.7,6,6v-4C102,80.7,99.3,78,96,78z"/>
	<path style="fill:#B3B3B3;" d="M90,88H78c-3.3,0-6,2.7-6,6v28c0,2.131,1.129,4.006,2.815,5.072   c7.604-1.295,14.747-3.93,21.185-7.655V94C96,90.7,93.3,88,90,88z"/>
	<path style="fill:#233540;" d="M90,88H78c-3.3,0-6,2.7-6,6v4c0-3.3,2.7-6,6-6h12c3.3,0,6,2.7,6,6v-4C96,90.7,93.3,88,90,88z"/>
	<path style="fill:#99602E;" d="M72,115c0,1.1-0.9,2-2,2h-2c-1.1,0-2-0.9-2-2V95c0-1.1,0.9-2,2-2h2c1.1,0,2,0.9,2,2V115z"/>
	<path style="fill:#8C582A;" d="M70,93h-2c-1.1,0-2,0.9-2,2v2c0-1.1,0.9-2,2-2h2c1.1,0,2,0.9,2,2v-2C72,93.9,71.1,93,70,93z"/>
	<path style="fill:#99602E;" d="M100,93h-2c-1.1,0-2,0.9-2,2v20c0,1.1,0.9,2,2,2h1.881c0.688-0.467,1.361-0.951,2.03-1.443   c0.052-0.179,0.089-0.363,0.089-0.557V95C102,93.9,101.1,93,100,93z"/>
	<path style="fill:#8C582A;" d="M100,93h-2c-1.1,0-2,0.9-2,2v2c0-1.1,0.9-2,2-2h2c1.1,0,2,0.9,2,2v-2C102,93.9,101.1,93,100,93z"/>
	<path style="fill:#E16B5A;" d="M126.445,78H110c-3.3,0-6,2.7-6,6v28c0,0.604,0.093,1.188,0.261,1.738   C115.271,104.814,123.25,92.313,126.445,78z"/>
	<path style="fill:#CC6152;" d="M110,78c-3.3,0-6,2.7-6,6v4c0-3.3,2.7-6,6-6h15.416c0.385-1.316,0.729-2.65,1.029-4H110z"/>
	<path style="fill:#B3B3B3;" d="M123.33,88H116c-3.3,0-6,2.7-6,6v14.473C115.666,102.613,120.22,95.68,123.33,88z"/>
	<path style="fill:#233540;" d="M116,88c-3.3,0-6,2.7-6,6v4c0-3.3,2.7-6,6-6h5.559c0.639-1.309,1.224-2.645,1.771-4H116z"/>
	<path style="fill:#99602E;" d="M110,108.473V95c0-1.1-0.9-2-2-2h-2c-1.1,0-2,0.9-2,2v18.943   C106.115,112.247,108.117,110.419,110,108.473z"/>
	<path style="fill:#8C582A;" d="M108,93h-2c-1.1,0-2,0.9-2,2v2c0-1.1,0.9-2,2-2h2c1.1,0,2,0.9,2,2v-2C110,93.9,109.1,93,108,93z"/>
	<path style="fill:#E16B5A;" d="M40,101H16c-1.273,0-2.455,0.405-3.43,1.089c8.202,11.058,19.887,19.363,33.43,23.327V107   C46,103.7,43.3,101,40,101z"/>
	<path style="fill:#CC6152;" d="M40,101H16c-1.273,0-2.455,0.405-3.43,1.089c0.763,1.029,1.56,2.03,2.381,3.011   c0.342-0.062,0.69-0.1,1.049-0.1h24c3.3,0,6,2.7,6,6v-4C46,103.7,43.3,101,40,101z"/>
	<path style="fill:#B3B3B3;" d="M34,111H22c-0.438,0-0.864,0.051-1.276,0.141c5.599,5.143,12.116,9.291,19.276,12.189V117   C40,113.7,37.3,111,34,111z"/>
	<path style="fill:#233540;" d="M34,111H22c-0.438,0-0.864,0.051-1.276,0.141c1.479,1.357,3.021,2.645,4.621,3.859H34   c3.3,0,6,2.7,6,6v-4C40,113.7,37.3,111,34,111z"/>
	<path style="fill:#99602E;" d="M44,116h-2c-1.1,0-2,0.9-2,2v5.33c1.954,0.791,3.955,1.486,6,2.085V118C46,116.9,45.1,116,44,116z"/>
	<path style="fill:#8C582A;" d="M44,116h-2c-1.1,0-2,0.9-2,2v2c0-1.1,0.9-2,2-2h2c1.1,0,2,0.9,2,2v-2C46,116.9,45.1,116,44,116z"/>
	<path style="fill:#E16B5A;" d="M78,101H54c-3.3,0-6,2.7-6,6v18.982C53.114,127.3,58.476,128,64,128c6.987,0,13.705-1.135,20-3.205   V107C84,103.7,81.3,101,78,101z"/>
	<path style="fill:#CC6152;" d="M78,101H54c-3.3,0-6,2.7-6,6v4c0-3.3,2.7-6,6-6h24c3.3,0,6,2.7,6,6v-4C84,103.7,81.3,101,78,101z"/>
	<path style="fill:#B3B3B3;" d="M72,111H60c-3.3,0-6,2.7-6,6v10.217c3.259,0.512,6.598,0.783,10,0.783c4.813,0,9.492-0.548,14-1.555   V117C78,113.7,75.3,111,72,111z"/>
	<path style="fill:#233540;" d="M72,111H60c-3.3,0-6,2.7-6,6v4c0-3.3,2.7-6,6-6h12c3.3,0,6,2.7,6,6v-4C78,113.7,75.3,111,72,111z"/>
	<path style="fill:#99602E;" d="M52,116h-2c-1.1,0-2,0.9-2,2v7.982c1.965,0.507,3.967,0.916,6,1.234V118C54,116.9,53.1,116,52,116z"/>
	<path style="fill:#8C582A;" d="M52,116h-2c-1.1,0-2,0.9-2,2v2c0-1.1,0.9-2,2-2h2c1.1,0,2,0.9,2,2v-2C54,116.9,53.1,116,52,116z"/>
	<path style="fill:#99602E;" d="M82,116h-2c-1.1,0-2,0.9-2,2v8.445c2.039-0.455,4.04-1.006,6-1.65V118C84,116.9,83.1,116,82,116z"/>
	<path style="fill:#8C582A;" d="M82,116h-2c-1.1,0-2,0.9-2,2v2c0-1.1,0.9-2,2-2h2c1.1,0,2,0.9,2,2v-2C84,116.9,83.1,116,82,116z"/>
	<path style="fill:#E16B5A;" d="M116.197,101.01c-0.066-0.002-0.131-0.01-0.197-0.01H92c-3.3,0-6,2.7-6,6v17.118   C98.266,119.628,108.76,111.48,116.197,101.01z"/>
	<path style="fill:#CC6152;" d="M116.197,101.01c-0.066-0.002-0.131-0.01-0.197-0.01H92c-3.3,0-6,2.7-6,6v4c0-3.3,2.7-6,6-6h21.134   C114.208,103.714,115.225,102.379,116.197,101.01z"/>
	<path style="fill:#B3B3B3;" d="M107.424,111H98c-3.3,0-6,2.7-6,6v4.559C97.66,118.8,102.85,115.229,107.424,111z"/>
	<path style="fill:#233540;" d="M98,111c-3.3,0-6,2.7-6,6v4c0-3.3,2.7-6,6-6h4.655c1.654-1.256,3.245-2.592,4.769-4H98z"/>
	<path style="fill:#99602E;" d="M90,116h-2c-1.1,0-2,0.9-2,2v6.118c2.053-0.751,4.053-1.61,6-2.56V118C92,116.9,91.1,116,90,116z"/>
	<path style="fill:#8C582A;" d="M90,116h-2c-1.1,0-2,0.9-2,2v2c0-1.1,0.9-2,2-2h2c1.1,0,2,0.9,2,2v-2C92,116.9,91.1,116,90,116z"/>
	<path style="fill:#406A80;" d="M64,38c-2.757,0-5-2.243-5-5s2.243-5,5-5s5,2.243,5,5S66.757,38,64,38z"/>
	<circle style="fill:#FFD464;" cx="64" cy="33" r="3"/>
	<path style="opacity:0.4;fill:#E6E6E6;enable-background:new    ;" d="M67,33c0-1.657-1.344-3-3-3s-3,1.343-3,3L9.21,97.09   C20.423,115.616,40.765,128,64,128c25.043,0,46.713-14.395,57.227-35.352L67,33z"/>
	<path style="opacity:0.3;fill:#F5F5F5;enable-background:new    ;" d="M64,28c0,1-4,5-5,5c1,0,5,4,5,5c0-1,4-5,5-5   C68,33,64,29,64,28z"/>
	<path style="opacity:0.3;fill:#F5F5F5;enable-background:new    ;" d="M60.465,29.464c0.707,0.708,0.707,6.364,0,7.071   c0.707-0.707,6.363-0.707,7.07,0c-0.707-0.707-0.707-6.364,0-7.071C66.828,30.172,61.172,30.172,60.465,29.464z"/>
</g>
</svg>
