<?xml version="1.0" encoding="UTF-8"?><svg xmlns="http://www.w3.org/2000/svg" viewBox="0 0 512.61 512"><defs><style>.c{fill:#fff;}.d{fill:#fdc00f;}.e{fill:#14b0bf;}.f{fill:#0f303f;}.g{fill:#3387b5;}</style></defs><g id="a"><rect class="e" width="511.93" height="511.93" rx="32.02" ry="32.02"/><rect class="g" x="211.02" y="210.34" width="301.59" height="301.59" rx="32.02" ry="32.02"/><g><circle class="e" cx="256" cy="256" r="256"/><path class="g" d="M437.02,437.02c59.7-59.7,83.72-141.55,72.12-219.09l-107.3-108.07L96.69,163.67l8.77,49.73,2.46-.43,.08,.43h-2.54v168.4c0,6.38,3.04,12.03,7.67,15.77,.92,1.14,112.07,112.07,112.58,112.58,75.2,8.91,153.6-15.42,211.31-73.12Z"/><path class="f" d="M415.31,381.79c0,11.19-9.16,20.35-20.35,20.35H125.81c-11.19,0-20.35-9.16-20.35-20.35V233.74c0-11.19,9.16-20.35,20.35-20.35H394.96c11.19,0,20.35,9.16,20.35,20.35v148.04Z"/><rect class="c" x="105.46" y="213.4" width="309.86" height="50.5"/><path class="f" d="M156,220.31l-36.87,37.37h37.37l36.87-37.37h-37.37Zm155.32,0l-36.87,37.37h37.37l36.87-37.37h-37.37Zm-103.55,0l-36.88,37.36h37.37l36.87-37.37h-37.36Zm51.77,0l-36.87,37.37h37.37l36.87-37.37h-37.37Zm103.55,0l-36.87,37.37h37.37l36.87-37.37h-37.37Zm51.77,0l-36.87,37.37h37.32v-37.37h-.44Zm-309.41,0v37.37h.25l36.87-37.37h-37.12Z"/><rect class="c" x="98.72" y="136.35" width="309.85" height="50.5" transform="translate(-24.2 46.49) rotate(-10)"/><path class="f" d="M316.47,131.94l42.8,30.4,36.8-6.49-42.8-30.4-36.8,6.49Zm-152.97,26.97l42.8,30.4,36.8-6.49-42.8-30.4-36.8,6.49Zm101.97-17.98l42.8,30.4,36.8-6.49-42.8-30.4-36.8,6.49Zm-50.98,8.99l42.8,30.4,36.8-6.49-42.8-30.4-36.8,6.49Zm-101.98,17.98l42.8,30.4,36.8-6.49-42.8-30.4-36.8,6.49Zm-14.62,2.58l6.49,36.8,36.75-6.48-42.8-30.4-.43,.08Zm268.59-47.36l42.8,30.4,.24-.04-6.49-36.8-36.56,6.44Z"/><path class="d" d="M394.63,317.38h-.07v-36.55H125.12v103.24H394.56v-62.17h.07v-4.51Zm-4.14-32.48v32.48h-101.13v-32.48h101.13Zm-105.64,0v32.48h-107.81v-32.48h107.81Zm-155.66,95.09v-95.09h43.34v95.09h-43.34Zm47.86,0v-58.1h107.81v58.1h-107.81Zm213.45,0h-101.13v-58.1h101.12v58.1h0Z"/></g></g><g id="b"/></svg>