<svg xmlns="http://www.w3.org/2000/svg" xmlns:xlink="http://www.w3.org/1999/xlink" viewBox="0 0 504 288"><defs><style>.cls-1{fill:#fa0;}.cls-2{isolation:isolate;}.cls-3{clip-path:url(#clip-path);}.cls-4,.cls-7{fill:#0a0909;}.cls-4,.cls-6{mix-blend-mode:overlay;}.cls-4{opacity:0.4;}.cls-5{fill:#fff;}.cls-6{opacity:0.5;}.cls-8{opacity:0.6;}.cls-9{fill:#1d2a42;}</style><clipPath id="clip-path"><rect class="cls-1" width="504" height="288"/></clipPath></defs><g class="cls-2"><g id="Layer_1" data-name="Layer 1"><rect class="cls-1" width="504" height="288"/><g class="cls-3"><polygon class="cls-4" points="147.9 125.3 574.02 -42.91 514.49 398.45 217.7 396.75 129.91 169.17 124.16 149.28 147.9 125.3"/><polygon class="cls-5" points="147.9 125.3 568.91 12.37 514.49 398.45 250.87 383.14 129.91 169.17 124.16 149.28 147.9 125.3"/><g class="cls-6"><path class="cls-7" d="M-21.57,316l2.11-7.29a3.52,3.52,0,0,1,4.37-2.41L-5.57,309a3.52,3.52,0,0,1,2.41,4.37L-3.91,316H2.46l39.62-137a9.75,9.75,0,0,1,12.07-6.66l110.48,31.94a9.76,9.76,0,0,1,6.66,12.07L142.47,316h34.24L275.54-25.9h-8.45L265-18.73a3.52,3.52,0,0,1-4.37,2.4l-9.53-2.75a3.52,3.52,0,0,1-2.41-4.37l.7-2.45H241.3L235.11-4.49A9.75,9.75,0,0,1,223,2.17L126-25.9H68.08L-30.75,316Zm194.69-16.79-3.73,12.91a3.53,3.53,0,0,1-4.37,2.41l-9.54-2.76a3.54,3.54,0,0,1-2.41-4.37l3.73-12.91a3.53,3.53,0,0,1,4.37-2.41l9.54,2.76A3.54,3.54,0,0,1,173.12,299.17Zm8.69-30.08L178.08,282a3.52,3.52,0,0,1-4.37,2.41l-9.54-2.75a3.54,3.54,0,0,1-2.41-4.37l3.74-12.91a3.52,3.52,0,0,1,4.37-2.41l9.53,2.76A3.5,3.5,0,0,1,181.81,269.09Zm8.7-30.07-3.74,12.91a3.52,3.52,0,0,1-4.36,2.41l-9.54-2.76a3.53,3.53,0,0,1-2.41-4.37l3.73-12.91a3.54,3.54,0,0,1,4.37-2.41l9.54,2.76A3.54,3.54,0,0,1,190.51,239ZM199.2,209l-3.73,12.91a3.54,3.54,0,0,1-4.37,2.41l-9.54-2.76a3.54,3.54,0,0,1-2.41-4.37l3.74-12.91a3.52,3.52,0,0,1,4.36-2.41l9.54,2.76A3.53,3.53,0,0,1,199.2,209Zm8.7-30.08-3.74,12.91a3.52,3.52,0,0,1-4.37,2.41l-9.53-2.76a3.5,3.5,0,0,1-2.41-4.36l3.73-12.91a3.52,3.52,0,0,1,4.37-2.41l9.54,2.75A3.54,3.54,0,0,1,207.9,178.87Zm8.69-30.07-3.73,12.91a3.53,3.53,0,0,1-4.37,2.41L199,161.36a3.54,3.54,0,0,1-2.41-4.37l3.73-12.91a3.53,3.53,0,0,1,4.37-2.41l9.54,2.76A3.54,3.54,0,0,1,216.59,148.8Zm8.69-30.08-3.73,12.92a3.52,3.52,0,0,1-4.37,2.4l-9.54-2.75a3.52,3.52,0,0,1-2.4-4.37L209,114a3.52,3.52,0,0,1,4.37-2.41l9.53,2.76A3.51,3.51,0,0,1,225.28,118.72ZM234,88.65l-3.73,12.91a3.53,3.53,0,0,1-4.37,2.41l-9.54-2.76a3.52,3.52,0,0,1-2.41-4.37l3.73-12.91A3.54,3.54,0,0,1,222,81.52l9.54,2.76A3.54,3.54,0,0,1,234,88.65Zm6-82,3.73-12.91a3.53,3.53,0,0,1,4.37-2.41l9.54,2.76a3.53,3.53,0,0,1,2.41,4.37l-3.73,12.91A3.53,3.53,0,0,1,252,13.75L242.42,11A3.54,3.54,0,0,1,240,6.62ZM231.32,36.7l3.73-12.91a3.52,3.52,0,0,1,4.37-2.41L249,24.13a3.54,3.54,0,0,1,2.41,4.37l-3.74,12.91a3.52,3.52,0,0,1-4.36,2.41l-9.54-2.75A3.52,3.52,0,0,1,231.32,36.7Zm-.6,14.75,9.54,2.76a3.52,3.52,0,0,1,2.41,4.37l-3.73,12.91a3.52,3.52,0,0,1-4.37,2.41L225,71.14a3.54,3.54,0,0,1-2.41-4.37l3.74-12.91A3.52,3.52,0,0,1,230.72,51.45Zm-121.11-71L220.09,12.37a9.75,9.75,0,0,1,6.66,12.07l-47.1,162.91A9.76,9.76,0,0,1,167.58,194L57.1,162.07A9.76,9.76,0,0,1,50.44,150L97.54-12.91A9.74,9.74,0,0,1,109.61-19.57ZM72.44-9.23l3.74-12.91a3.52,3.52,0,0,1,4.36-2.41l9.53,2.75a3.52,3.52,0,0,1,2.41,4.37L88.74-4.52a3.52,3.52,0,0,1-4.37,2.41L74.85-4.86A3.54,3.54,0,0,1,72.44-9.23ZM63.75,20.84,67.48,7.93a3.53,3.53,0,0,1,4.37-2.41l9.52,2.75a3.52,3.52,0,0,1,2.41,4.37L80.05,25.55A3.52,3.52,0,0,1,75.68,28l-9.52-2.75A3.53,3.53,0,0,1,63.75,20.84Zm-8.7,30.07L58.79,38a3.53,3.53,0,0,1,4.37-2.41l9.52,2.76a3.52,3.52,0,0,1,2.41,4.37L71.35,55.63A3.51,3.51,0,0,1,67,58l-9.53-2.76A3.53,3.53,0,0,1,55.05,50.91ZM46.36,81l3.73-12.91a3.53,3.53,0,0,1,4.37-2.41L64,68.42a3.52,3.52,0,0,1,2.41,4.37L62.66,85.7a3.52,3.52,0,0,1-4.37,2.41l-9.52-2.75A3.54,3.54,0,0,1,46.36,81Zm-8.69,30.07L41.4,98.15a3.52,3.52,0,0,1,4.37-2.41l9.52,2.76a3.51,3.51,0,0,1,2.41,4.36L54,115.77a3.52,3.52,0,0,1-4.37,2.41l-9.52-2.75A3.52,3.52,0,0,1,37.67,111.06ZM29,141.14l3.73-12.91a3.52,3.52,0,0,1,4.37-2.41l9.53,2.75a3.51,3.51,0,0,1,2.4,4.37l-3.73,12.91a3.52,3.52,0,0,1-4.37,2.41l-9.52-2.76A3.52,3.52,0,0,1,29,141.14Zm-8.69,30.07L24,158.3a3.52,3.52,0,0,1,4.37-2.41l9.52,2.75A3.52,3.52,0,0,1,40.31,163l-3.73,12.91a3.52,3.52,0,0,1-4.37,2.41l-9.52-2.75A3.52,3.52,0,0,1,20.28,171.21Zm-8.7,30.07,3.74-12.91A3.53,3.53,0,0,1,19.68,186l9.53,2.76a3.52,3.52,0,0,1,2.41,4.37L27.88,206a3.52,3.52,0,0,1-4.37,2.41L14,205.65A3.54,3.54,0,0,1,11.58,201.28ZM2.89,231.36l3.73-12.91A3.53,3.53,0,0,1,11,216l9.52,2.75a3.51,3.51,0,0,1,2.41,4.37l-3.73,12.91a3.52,3.52,0,0,1-4.37,2.41L5.3,235.73A3.53,3.53,0,0,1,2.89,231.36ZM-5.8,261.43l3.73-12.91a3.52,3.52,0,0,1,4.37-2.41l9.52,2.75a3.52,3.52,0,0,1,2.41,4.37l-3.74,12.91a3.5,3.5,0,0,1-4.36,2.41L-3.4,265.8A3.52,3.52,0,0,1-5.8,261.43Zm-8.7,30.08,3.73-12.92a3.53,3.53,0,0,1,4.37-2.4l9.52,2.75a3.51,3.51,0,0,1,2.41,4.37L1.8,296.22a3.52,3.52,0,0,1-4.37,2.41l-9.52-2.76A3.52,3.52,0,0,1-14.5,291.51Z"/><g class="cls-8"><path class="cls-7" d="M142.47,316l28.82-99.68a9.76,9.76,0,0,0-6.66-12.07L54.15,172.27a9.75,9.75,0,0,0-12.07,6.66L2.46,316Z"/><rect class="cls-7" x="44.06" y="19.97" width="189.08" height="134.5" rx="9.75" transform="translate(16.32 196.14) rotate(-73.88)"/><path class="cls-7" d="M126-25.9,223,2.17a9.75,9.75,0,0,0,12.07-6.66L241.3-25.9Z"/></g></g><path class="cls-9" d="M412,367.21,528-34.18H506.29l3.4,1a4,4,0,0,1,2.7,4.91L493.25,37.93a4,4,0,0,1-4.91,2.71l-44.91-13a4,4,0,0,1-2.7-4.91l16.45-56.93h-2.59l-1,3.39a1.44,1.44,0,0,1-1.78,1L448-30.93a1.44,1.44,0,0,1-1-1.78l.42-1.47h-3.73l-116,401.39h3.74l.5-1.76a1.44,1.44,0,0,1,1.78-1l3.87,1.12a1.44,1.44,0,0,1,1,1.62h2.61l6-20.78a4,4,0,0,1,4.91-2.7l44.91,13a4,4,0,0,1,2.7,4.9l-1.61,5.6h6.7L403,366.7a1.43,1.43,0,0,1-1-1.78l1.51-5.25a1.45,1.45,0,0,1,1.78-1l3.88,1.13a1.42,1.42,0,0,1,1,1.77l-1.51,5.25a1.16,1.16,0,0,1-.18.37Zm-61.42-32.54,19.15-66.22a4,4,0,0,1,4.9-2.71l44.91,13a4,4,0,0,1,2.71,4.9l-19.15,66.23a4,4,0,0,1-4.9,2.7l-44.91-13A4,4,0,0,1,350.55,334.67Zm94.21-129-19.14,66.22a4,4,0,0,1-4.91,2.71l-44.91-13a4,4,0,0,1-2.7-4.91l19.14-66.22a4,4,0,0,1,4.91-2.71l44.91,13A4,4,0,0,1,444.76,205.65Zm-1.51-9.05-44.91-13a4,4,0,0,1-2.7-4.91l19.14-66.22a4,4,0,0,1,4.91-2.71l44.91,13a4,4,0,0,1,2.7,4.9l-19.14,66.22A4,4,0,0,1,443.25,196.6ZM337.19,352.25l3.87,1.12a1.42,1.42,0,0,1,1,1.77l-1.51,5.25a1.43,1.43,0,0,1-1.78,1l-3.87-1.12a1.43,1.43,0,0,1-1-1.77l1.52-5.25A1.43,1.43,0,0,1,337.19,352.25ZM340.73,340l3.87,1.12a1.44,1.44,0,0,1,1,1.78l-1.52,5.25a1.44,1.44,0,0,1-1.78,1L338.41,348a1.44,1.44,0,0,1-1-1.78L339,341A1.45,1.45,0,0,1,340.73,340Zm3.53-12.22,3.87,1.12a1.42,1.42,0,0,1,1,1.77l-1.52,5.25a1.42,1.42,0,0,1-1.77,1L342,335.8a1.43,1.43,0,0,1-1-1.77l1.52-5.25A1.43,1.43,0,0,1,344.26,327.8Zm3.54-12.22,3.87,1.11a1.44,1.44,0,0,1,1,1.78l-1.52,5.25a1.44,1.44,0,0,1-1.78,1l-3.87-1.12a1.44,1.44,0,0,1-1-1.78l1.52-5.25A1.43,1.43,0,0,1,347.8,315.58Zm3.53-12.23,3.87,1.12a1.44,1.44,0,0,1,1,1.78l-1.52,5.24a1.42,1.42,0,0,1-1.77,1L349,311.35a1.43,1.43,0,0,1-1-1.77l1.51-5.25A1.44,1.44,0,0,1,351.33,303.35Zm3.53-12.22,3.87,1.12a1.42,1.42,0,0,1,1,1.77l-1.51,5.25a1.44,1.44,0,0,1-1.78,1l-3.87-1.12a1.44,1.44,0,0,1-1-1.78l1.52-5.24A1.43,1.43,0,0,1,354.86,291.13Zm3.54-12.23,3.87,1.12a1.44,1.44,0,0,1,1,1.78L361.73,287a1.42,1.42,0,0,1-1.77,1l-3.88-1.12a1.42,1.42,0,0,1-1-1.77l1.51-5.25A1.44,1.44,0,0,1,358.4,278.9Zm3.53-12.22,3.87,1.12a1.42,1.42,0,0,1,1,1.77l-1.52,5.25a1.43,1.43,0,0,1-1.77,1l-3.87-1.12a1.44,1.44,0,0,1-1-1.78l1.52-5.24A1.42,1.42,0,0,1,361.93,266.68Zm3.54-12.23,3.87,1.12a1.44,1.44,0,0,1,1,1.78l-1.52,5.25a1.42,1.42,0,0,1-1.78,1l-3.87-1.11a1.44,1.44,0,0,1-1-1.78l1.52-5.25A1.44,1.44,0,0,1,365.47,254.45ZM369,242.23l3.87,1.12a1.42,1.42,0,0,1,1,1.77l-1.52,5.25a1.42,1.42,0,0,1-1.77,1l-3.87-1.12a1.43,1.43,0,0,1-1-1.77l1.51-5.25A1.44,1.44,0,0,1,369,242.23ZM372.53,230l3.87,1.12a1.42,1.42,0,0,1,1,1.78l-1.51,5.25a1.44,1.44,0,0,1-1.78,1L370.22,238a1.44,1.44,0,0,1-1-1.78l1.52-5.25A1.43,1.43,0,0,1,372.53,230Zm3.54-12.22,3.87,1.12a1.43,1.43,0,0,1,1,1.77l-1.52,5.25a1.42,1.42,0,0,1-1.77,1l-3.88-1.12a1.42,1.42,0,0,1-1-1.77l1.51-5.25A1.43,1.43,0,0,1,376.07,217.78Zm3.53-12.23,3.87,1.12a1.43,1.43,0,0,1,1,1.78l-1.51,5.25a1.44,1.44,0,0,1-1.78,1l-3.87-1.12a1.44,1.44,0,0,1-1-1.78l1.52-5.25A1.44,1.44,0,0,1,379.6,205.55Zm3.54-12.22,3.87,1.12a1.43,1.43,0,0,1,1,1.77l-1.52,5.25a1.43,1.43,0,0,1-1.78,1l-3.87-1.12a1.44,1.44,0,0,1-1-1.77l1.52-5.25A1.43,1.43,0,0,1,383.14,193.33Zm3.53-12.22,3.87,1.11a1.44,1.44,0,0,1,1,1.78L390,189.25a1.43,1.43,0,0,1-1.77,1l-3.87-1.12a1.44,1.44,0,0,1-1-1.78l1.51-5.25A1.44,1.44,0,0,1,386.67,181.11Zm3.53-12.23,3.88,1.12a1.42,1.42,0,0,1,1,1.78L393.54,177a1.43,1.43,0,0,1-1.78,1l-3.87-1.12a1.43,1.43,0,0,1-1-1.77l1.52-5.25A1.43,1.43,0,0,1,390.2,168.88Zm3.54-12.22,3.87,1.12a1.43,1.43,0,0,1,1,1.77l-1.52,5.25a1.43,1.43,0,0,1-1.77,1l-3.88-1.12a1.43,1.43,0,0,1-1-1.78l1.51-5.24A1.43,1.43,0,0,1,393.74,156.66Zm3.53-12.23,3.87,1.12a1.43,1.43,0,0,1,1,1.78l-1.51,5.24a1.44,1.44,0,0,1-1.78,1L395,152.43a1.42,1.42,0,0,1-1-1.77l1.52-5.25A1.43,1.43,0,0,1,397.27,144.43Zm3.54-12.22,3.87,1.12a1.43,1.43,0,0,1,1,1.77l-1.52,5.25a1.44,1.44,0,0,1-1.78,1l-3.87-1.12a1.44,1.44,0,0,1-1-1.78l1.52-5.24A1.43,1.43,0,0,1,400.81,132.21ZM404.34,120l3.87,1.12a1.43,1.43,0,0,1,1,1.78l-1.52,5.25a1.42,1.42,0,0,1-1.77,1L402,128a1.44,1.44,0,0,1-1-1.78l1.52-5.25A1.43,1.43,0,0,1,404.34,120Zm3.53-12.22,3.88,1.12a1.42,1.42,0,0,1,1,1.77l-1.51,5.25a1.43,1.43,0,0,1-1.78,1l-3.87-1.12a1.43,1.43,0,0,1-1-1.77l1.52-5.25A1.43,1.43,0,0,1,407.87,107.76Zm3.54-12.23,3.87,1.12a1.44,1.44,0,0,1,1,1.78l-1.52,5.25a1.43,1.43,0,0,1-1.77,1l-3.87-1.12a1.44,1.44,0,0,1-1-1.78l1.51-5.25A1.44,1.44,0,0,1,411.41,95.53Zm3.53-12.22,3.87,1.12a1.42,1.42,0,0,1,1,1.77l-1.51,5.25a1.44,1.44,0,0,1-1.78,1l-3.87-1.12a1.43,1.43,0,0,1-1-1.77l1.52-5.25A1.43,1.43,0,0,1,414.94,83.31Zm3.54-12.23,3.87,1.12a1.44,1.44,0,0,1,1,1.78l-1.52,5.25a1.44,1.44,0,0,1-1.78,1l-3.87-1.12a1.44,1.44,0,0,1-1-1.78l1.52-5.25A1.45,1.45,0,0,1,418.48,71.08ZM422,58.86,425.88,60a1.42,1.42,0,0,1,1,1.77L425.34,67a1.42,1.42,0,0,1-1.77,1l-3.87-1.12a1.43,1.43,0,0,1-1-1.77l1.52-5.25A1.42,1.42,0,0,1,422,58.86Zm3.54-12.22,3.87,1.11a1.44,1.44,0,0,1,1,1.78l-1.52,5.25a1.44,1.44,0,0,1-1.78,1l-3.87-1.12a1.44,1.44,0,0,1-1-1.78l1.52-5.25A1.43,1.43,0,0,1,425.55,46.64Zm3.53-12.23L433,35.53a1.44,1.44,0,0,1,1,1.78l-1.52,5.24a1.42,1.42,0,0,1-1.77,1l-3.87-1.12a1.43,1.43,0,0,1-1-1.77l1.51-5.25A1.44,1.44,0,0,1,429.08,34.41Zm3.53-12.22,3.87,1.12a1.42,1.42,0,0,1,1,1.77L436,30.33a1.44,1.44,0,0,1-1.78,1l-3.87-1.12a1.44,1.44,0,0,1-1-1.78l1.52-5.24A1.43,1.43,0,0,1,432.61,22.19Zm15.7-39.78-3.87-1.12a1.43,1.43,0,0,1-1-1.77L445-25.73a1.44,1.44,0,0,1,1.78-1l3.87,1.12a1.43,1.43,0,0,1,1,1.77l-1.52,5.25A1.43,1.43,0,0,1,448.31-17.59ZM444.77-5.37,440.9-6.48a1.44,1.44,0,0,1-1-1.78l1.52-5.25a1.44,1.44,0,0,1,1.78-1l3.87,1.12a1.44,1.44,0,0,1,1,1.78l-1.52,5.25A1.42,1.42,0,0,1,444.77-5.37ZM441.24,6.86l-3.87-1.12a1.44,1.44,0,0,1-1-1.78l1.52-5.24a1.42,1.42,0,0,1,1.77-1l3.87,1.12a1.42,1.42,0,0,1,1,1.77L443,5.88A1.43,1.43,0,0,1,441.24,6.86ZM439.48,18.1a1.43,1.43,0,0,1-1.78,1L433.83,18a1.43,1.43,0,0,1-1-1.77l1.52-5.25a1.44,1.44,0,0,1,1.78-1L440,11.08a1.44,1.44,0,0,1,1,1.78Zm50.37,31.59L470.7,115.91a4,4,0,0,1-4.9,2.71l-44.91-13a4,4,0,0,1-2.71-4.91l19.15-66.22a4,4,0,0,1,4.9-2.71l44.91,13A4,4,0,0,1,489.85,49.69ZM520-23.37l-3.88-1.12a1.42,1.42,0,0,1-1-1.77l1.51-5.25a1.43,1.43,0,0,1,1.78-1l3.88,1.12a1.43,1.43,0,0,1,1,1.78l-1.51,5.24A1.43,1.43,0,0,1,520-23.37Zm-3.53,12.23-3.88-1.12a1.44,1.44,0,0,1-1-1.78l1.52-5.25a1.43,1.43,0,0,1,1.77-1l3.88,1.12a1.44,1.44,0,0,1,1,1.78l-1.52,5.25A1.43,1.43,0,0,1,516.43-11.14ZM512.89,1.08,509,0a1.44,1.44,0,0,1-1-1.78l1.51-5.24a1.44,1.44,0,0,1,1.78-1l3.88,1.12a1.44,1.44,0,0,1,1,1.77L514.67.1A1.43,1.43,0,0,1,512.89,1.08Zm-3.53,12.23-3.88-1.12a1.44,1.44,0,0,1-1-1.78L506,5.16a1.44,1.44,0,0,1,1.78-1l3.87,1.12a1.44,1.44,0,0,1,1,1.78l-1.51,5.25A1.44,1.44,0,0,1,509.36,13.31Zm-3.53,12.22L502,24.41a1.44,1.44,0,0,1-1-1.78l1.52-5.24a1.42,1.42,0,0,1,1.77-1l3.88,1.12a1.43,1.43,0,0,1,1,1.77l-1.52,5.25A1.43,1.43,0,0,1,505.83,25.53Zm-3.54,12.22-3.88-1.12a1.43,1.43,0,0,1-1-1.77L499,29.61a1.44,1.44,0,0,1,1.78-1l3.88,1.12a1.43,1.43,0,0,1,1,1.78l-1.51,5.25A1.43,1.43,0,0,1,502.29,37.75ZM498.76,50l-3.88-1.12a1.44,1.44,0,0,1-1-1.78l1.52-5.24a1.43,1.43,0,0,1,1.77-1L501.07,42a1.43,1.43,0,0,1,1,1.77L500.53,49A1.43,1.43,0,0,1,498.76,50ZM495.22,62.2l-3.87-1.12a1.43,1.43,0,0,1-1-1.77l1.51-5.25a1.44,1.44,0,0,1,1.78-1l3.88,1.12a1.44,1.44,0,0,1,1,1.78L497,61.23A1.43,1.43,0,0,1,495.22,62.2Zm-3.53,12.23-3.88-1.12a1.44,1.44,0,0,1-1-1.78l1.52-5.25a1.45,1.45,0,0,1,1.78-1L494,66.43a1.43,1.43,0,0,1,1,1.77l-1.52,5.25A1.43,1.43,0,0,1,491.69,74.43Zm-3.53,12.22-3.88-1.12a1.43,1.43,0,0,1-1-1.77l1.52-5.25a1.42,1.42,0,0,1,1.77-1l3.88,1.12a1.44,1.44,0,0,1,1,1.78l-1.52,5.24A1.43,1.43,0,0,1,488.16,86.65Zm-3.54,12.23-3.88-1.12a1.44,1.44,0,0,1-1-1.78l1.52-5.25a1.45,1.45,0,0,1,1.78-1l3.87,1.13a1.42,1.42,0,0,1,1,1.77L486.4,97.9A1.44,1.44,0,0,1,484.62,98.88Zm-3.53,12.22L477.21,110a1.43,1.43,0,0,1-1-1.77l1.52-5.25a1.43,1.43,0,0,1,1.77-1l3.88,1.12a1.44,1.44,0,0,1,1,1.78l-1.52,5.24A1.43,1.43,0,0,1,481.09,111.1Zm-3.54,12.23-3.87-1.12a1.44,1.44,0,0,1-1-1.78l1.51-5.25a1.44,1.44,0,0,1,1.78-1l3.88,1.12a1.45,1.45,0,0,1,1,1.78l-1.52,5.25A1.44,1.44,0,0,1,477.55,123.33ZM474,135.55l-3.88-1.12a1.43,1.43,0,0,1-1-1.77l1.52-5.25a1.43,1.43,0,0,1,1.78-1l3.87,1.12a1.43,1.43,0,0,1,1,1.77l-1.52,5.25A1.42,1.42,0,0,1,474,135.55Zm-3.54,12.23-3.87-1.12a1.44,1.44,0,0,1-1-1.78l1.52-5.25a1.43,1.43,0,0,1,1.77-1l3.88,1.12a1.44,1.44,0,0,1,1,1.78l-1.52,5.25A1.44,1.44,0,0,1,470.48,147.78ZM467,160l-3.88-1.12a1.44,1.44,0,0,1-1-1.78l1.52-5.24a1.43,1.43,0,0,1,1.78-1l3.87,1.12a1.43,1.43,0,0,1,1,1.77L468.73,159A1.43,1.43,0,0,1,467,160Zm-3.53,12.23-3.88-1.13a1.42,1.42,0,0,1-1-1.77l1.52-5.25a1.43,1.43,0,0,1,1.77-1l3.88,1.12a1.44,1.44,0,0,1,1,1.78l-1.52,5.25A1.44,1.44,0,0,1,463.42,172.23Zm-3.54,12.22L456,183.33a1.44,1.44,0,0,1-1-1.78l1.51-5.24a1.43,1.43,0,0,1,1.78-1l3.88,1.12a1.44,1.44,0,0,1,1,1.77l-1.52,5.25A1.43,1.43,0,0,1,459.88,184.45Zm-3.53,12.22-3.88-1.12a1.43,1.43,0,0,1-1-1.77l1.52-5.25a1.43,1.43,0,0,1,1.77-1l3.88,1.12a1.44,1.44,0,0,1,1,1.78l-1.52,5.25A1.42,1.42,0,0,1,456.35,196.67Zm-3.54,12.23-3.87-1.12a1.44,1.44,0,0,1-1-1.78l1.52-5.25a1.42,1.42,0,0,1,1.77-1l3.88,1.12a1.43,1.43,0,0,1,1,1.77l-1.52,5.25A1.44,1.44,0,0,1,452.81,208.9Zm-3.53,12.22L445.4,220a1.44,1.44,0,0,1-1-1.77l1.52-5.25a1.43,1.43,0,0,1,1.78-1l3.87,1.12a1.44,1.44,0,0,1,1,1.78l-1.51,5.24A1.44,1.44,0,0,1,449.28,221.12Zm-3.53,12.23-3.88-1.12a1.44,1.44,0,0,1-1-1.78l1.52-5.25a1.44,1.44,0,0,1,1.77-1l3.88,1.13a1.42,1.42,0,0,1,1,1.77l-1.52,5.25A1.43,1.43,0,0,1,445.75,233.35Zm-3.54,12.22-3.88-1.12a1.42,1.42,0,0,1-1-1.77l1.51-5.25a1.43,1.43,0,0,1,1.78-1l3.88,1.12a1.43,1.43,0,0,1,1,1.78L444,244.59A1.43,1.43,0,0,1,442.21,245.57Zm-3.53,12.23-3.88-1.12a1.44,1.44,0,0,1-1-1.78l1.52-5.25a1.43,1.43,0,0,1,1.77-1l3.88,1.12a1.44,1.44,0,0,1,1,1.78l-1.52,5.25A1.43,1.43,0,0,1,438.68,257.8ZM435.14,270l-3.87-1.12a1.43,1.43,0,0,1-1-1.77l1.51-5.25a1.44,1.44,0,0,1,1.78-1l3.88,1.12a1.43,1.43,0,0,1,1,1.77L436.92,269A1.43,1.43,0,0,1,435.14,270Zm-3.53,12.23-3.88-1.12a1.45,1.45,0,0,1-1-1.78l1.52-5.25a1.44,1.44,0,0,1,1.78-1l3.87,1.12a1.44,1.44,0,0,1,1,1.78l-1.51,5.25A1.44,1.44,0,0,1,431.61,282.25Zm-3.53,12.22-3.88-1.12a1.44,1.44,0,0,1-1-1.78l1.52-5.24a1.42,1.42,0,0,1,1.77-1l3.88,1.12a1.43,1.43,0,0,1,1,1.77l-1.52,5.25A1.43,1.43,0,0,1,428.08,294.47Zm-3.54,12.23-3.88-1.13a1.42,1.42,0,0,1-1-1.77l1.51-5.25a1.44,1.44,0,0,1,1.78-1l3.88,1.12a1.43,1.43,0,0,1,1,1.78l-1.51,5.25A1.45,1.45,0,0,1,424.54,306.7ZM421,318.92l-3.88-1.12a1.44,1.44,0,0,1-1-1.78l1.52-5.24a1.43,1.43,0,0,1,1.77-1l3.88,1.12a1.43,1.43,0,0,1,1,1.77l-1.52,5.25A1.42,1.42,0,0,1,421,318.92Zm-3.54,12.22L413.6,330a1.43,1.43,0,0,1-1-1.77l1.51-5.25a1.44,1.44,0,0,1,1.78-1l3.88,1.12a1.44,1.44,0,0,1,1,1.78l-1.52,5.25A1.43,1.43,0,0,1,417.47,331.14Zm-3.53,12.23-3.88-1.12a1.44,1.44,0,0,1-1-1.78l1.52-5.25a1.43,1.43,0,0,1,1.78-1l3.87,1.12a1.43,1.43,0,0,1,1,1.77l-1.51,5.25A1.44,1.44,0,0,1,413.94,343.37Zm-.24,6-1.52,5.24a1.43,1.43,0,0,1-1.77,1l-3.88-1.12a1.43,1.43,0,0,1-1-1.77l1.52-5.25a1.42,1.42,0,0,1,1.77-1l3.88,1.12A1.44,1.44,0,0,1,413.7,349.37Z"/><g class="cls-8"><rect class="cls-9" x="347.96" y="281.82" width="76.86" height="54.67" rx="3.96" transform="translate(-17.91 594.48) rotate(-73.88)"/><rect class="cls-9" x="370.5" y="203.84" width="76.86" height="54.67" rx="3.96" transform="translate(73.28 559.81) rotate(-73.88)"/><rect class="cls-9" x="393.04" y="125.86" width="76.86" height="54.67" rx="3.96" transform="translate(164.48 525.14) rotate(-73.88)"/><rect class="cls-9" x="415.59" y="47.88" width="76.86" height="54.67" rx="3.96" transform="translate(255.67 490.48) rotate(-73.88)"/><path class="cls-9" d="M457.18-34.18h49.11l3.4,1a4,4,0,0,1,2.7,4.91L493.25,37.93a4,4,0,0,1-4.91,2.71l-44.91-13a4,4,0,0,1-2.7-4.91Z"/></g><rect class="cls-9" x="38.05" y="81.03" width="2.28" height="23.35" transform="translate(-60.98 82.89) rotate(-61.49)"/><rect class="cls-9" x="28.39" y="83.37" width="4.52" height="9.48" rx="0.81" transform="translate(-61.4 72.98) rotate(-61.49)"/><rect class="cls-9" x="56.03" y="137.86" width="15.04" height="16.83" transform="translate(-95.89 149.59) rotate(-67.71)"/><rect class="cls-9" x="53.63" y="143.51" width="12.41" height="23.63" rx="2.86" transform="translate(-106.57 151.78) rotate(-67.71)"/><rect class="cls-9" x="-38.63" y="220.91" width="141.41" height="4.3" transform="translate(-186.49 168.13) rotate(-67.71)"/><polygon class="cls-9" points="-37.86 252.63 57.8 152.02 54.68 149.06 -42.12 250.88 -37.86 252.63"/><polygon class="cls-9" points="65.72 295.09 68.24 154.62 63.95 154.54 61.46 293.34 65.72 295.09"/><rect class="cls-9" x="36.71" y="131.53" width="3.22" height="32.94" transform="translate(-113.82 163.05) rotate(-81.13)"/><rect class="cls-9" x="27.33" y="100.77" width="10.74" height="20.05" rx="1.88" transform="translate(-82.22 99.02) rotate(-67.71)"/><rect class="cls-9" x="29.32" y="102.55" width="21" height="22.32" rx="2.6" transform="translate(-80.5 107.42) rotate(-67.71)"/><rect class="cls-9" x="103.55" y="125.66" width="14.32" height="20.05" transform="translate(-56.82 186.65) rotate(-67.71)"/><polygon class="cls-9" points="109.07 135.01 129.91 169.17 147.9 125.3 109.07 135.01"/><rect class="cls-9" x="47.03" y="81.48" width="52.51" height="82.1" rx="5.73" transform="translate(-67.89 143.86) rotate(-67.71)"/><rect class="cls-9" x="21.61" y="139.25" width="6.37" height="13.37" rx="1.14" transform="translate(-123.22 147.94) rotate(-81.13)"/><circle class="cls-9" cx="109.05" cy="94.16" r="17.7" transform="translate(-22.59 35.6) rotate(-16.83)"/><path class="cls-9" d="M128.42,77.46a25.58,25.58,0,1,0-2.68,36.07A25.58,25.58,0,0,0,128.42,77.46Zm-3.14,6.12a2.06,2.06,0,0,1,3.19.64,21.94,21.94,0,0,1,2.29,12A2.07,2.07,0,0,1,128,98l-10.53-3.67a2.06,2.06,0,0,1-.66-3.51ZM110.16,72.37a22,22,0,0,1,11.58,4,2.07,2.07,0,0,1,.16,3.25L113.45,87a2.06,2.06,0,0,1-3.37-1.18l-2.08-11A2.07,2.07,0,0,1,110.16,72.37ZM90.72,82.3a21.87,21.87,0,0,1,9.3-8,2.07,2.07,0,0,1,2.9,1.49l2.09,11a2.07,2.07,0,0,1-2.71,2.34L91.76,85.39A2.07,2.07,0,0,1,90.72,82.3Zm2.09,22.44a2.06,2.06,0,0,1-3.19-.65,21.94,21.94,0,0,1-2.29-12,2.07,2.07,0,0,1,2.74-1.77l10.53,3.67a2.06,2.06,0,0,1,.66,3.51ZM106.28,91a4.23,4.23,0,1,1-.44,6A4.23,4.23,0,0,1,106.28,91Zm1.65,25a21.94,21.94,0,0,1-11.58-4,2.08,2.08,0,0,1-.16-3.26l8.45-7.28a2.06,2.06,0,0,1,3.37,1.17l2.08,11A2.07,2.07,0,0,1,107.93,115.94Zm7.24-3.4-2.08-11a2.05,2.05,0,0,1,2.7-2.33l10.54,3.67a2.07,2.07,0,0,1,1,3.09,21.87,21.87,0,0,1-9.3,8A2.07,2.07,0,0,1,115.17,112.54Z"/><path class="cls-9" d="M110.4,95.73a2.08,2.08,0,1,1,.22-2.93A2.08,2.08,0,0,1,110.4,95.73Z"/><circle class="cls-9" cx="62.62" cy="76.24" r="16" transform="translate(-22.15 126.71) rotate(-81.37)"/><path class="cls-9" d="M71.39,54.86A23.11,23.11,0,1,0,84,85,23.1,23.1,0,0,0,71.39,54.86Zm0,6.21a1.86,1.86,0,0,1,2.83-.79A19.93,19.93,0,0,1,81,69.05,1.87,1.87,0,0,1,79.5,71.6L69.52,73a1.87,1.87,0,0,1-2-2.55ZM54.6,58.24a19.8,19.8,0,0,1,11-1.49,1.87,1.87,0,0,1,1.47,2.55l-3.83,9.33a1.87,1.87,0,0,1-3.2.43l-6.16-8A1.86,1.86,0,0,1,54.6,58.24ZM43,74.2a19.75,19.75,0,0,1,4.21-10.27,1.87,1.87,0,0,1,2.94,0l6.17,8a1.86,1.86,0,0,1-1.22,3l-10,1.35A1.86,1.86,0,0,1,43,74.2ZM53.88,91.41A1.88,1.88,0,0,1,51,92.2a19.91,19.91,0,0,1-6.77-8.77,1.86,1.86,0,0,1,1.48-2.55l10-1.35a1.87,1.87,0,0,1,2,2.55Zm5.2-16.62a3.83,3.83,0,1,1,2.09,5A3.83,3.83,0,0,1,59.08,74.79ZM70.65,94.24a19.8,19.8,0,0,1-11,1.49,1.87,1.87,0,0,1-1.47-2.55L62,83.85a1.85,1.85,0,0,1,3.19-.43l6.17,8A1.87,1.87,0,0,1,70.65,94.24Zm4.44-5.7-6.17-8a1.86,1.86,0,0,1,1.22-3l10-1.36a1.87,1.87,0,0,1,2.1,2.06,19.76,19.76,0,0,1-1.37,5.44A19.54,19.54,0,0,1,78,88.55,1.87,1.87,0,0,1,75.09,88.54Z"/><path class="cls-9" d="M64.36,77a1.87,1.87,0,1,1-1-2.45A1.89,1.89,0,0,1,64.36,77Z"/></g><path class="cls-9" d="M222.68,185.12h.81c.8,0,1.27-.2,1.43-.58a30.49,30.49,0,0,0,.24-5.55v-4.37A37.62,37.62,0,0,0,225,169c-.14-.36-.55-.53-1.24-.53h-1v-.81q2.13.09,4.23.09c1.16,0,2.21,0,3.16-.09v.81h-1a1.86,1.86,0,0,0-1.15.22,1.68,1.68,0,0,0-.27,1.1c-.05.92-.07,2.56-.07,4.91v4.44a31.61,31.61,0,0,0,.22,5.52q.22.51,1.41.51h.86v.81c-1.06-.06-2.21-.09-3.46-.09q-2.18,0-3.93.09Z"/><path class="cls-9" d="M250.26,170.39l-3.82,8c-1.44,3-2.61,5.6-3.53,7.83h-.52q-.48-1.14-2.73-5.89l-4.61-9.54v9.95a13.65,13.65,0,0,0,.28,4c.18.31.76.47,1.72.47h.48v.81q-1.78-.09-2.91-.09-.81,0-3.24.09v-.81h.84a1.85,1.85,0,0,0,1.13-.25,1.34,1.34,0,0,0,.35-.89c.11-1.2.16-2.5.16-3.89v-7.28c0-1.76,0-2.92-.11-3.49a.92.92,0,0,0-.38-.67,2.57,2.57,0,0,0-1.31-.23h-.68v-.81q2.24.09,2.82.09c.49,0,1.18,0,2.08-.09,1,2.31,2.24,4.85,3.6,7.64l3.39,7,3.13-6.45c1.1-2.26,2.35-5,3.76-8.15,1.07.06,1.83.09,2.27.09s1.42,0,2.74-.09v.81h-.84c-.76,0-1.23.13-1.39.39a8.05,8.05,0,0,0-.26,2.83v9.41a12.11,12.11,0,0,0,.27,3.6c.18.31.67.47,1.48.47h.74v.81c-1.19-.06-2.34-.09-3.43-.09s-2.45,0-3.77.09v-.81h.85q1,0,1.23-.45a16.9,16.9,0,0,0,.21-3.82Z"/><path class="cls-9" d="M269.22,179.75h-7.45l-.87,2.07a10.44,10.44,0,0,0-.87,2.52.52.52,0,0,0,.17.43,2,2,0,0,0,.81.2l1.24.15v.81c-.83-.06-1.75-.09-2.78-.09-1.24,0-2.32,0-3.26.09v-.81l.39,0a3,3,0,0,0,1.16-.18,1.92,1.92,0,0,0,.56-.8c.61-1.23,1.23-2.57,1.87-4l3.54-8c.94-2.13,1.59-3.67,1.93-4.63h.88l6.51,15.15a16.71,16.71,0,0,0,.87,1.86,1.34,1.34,0,0,0,.51.45,4.32,4.32,0,0,0,1.27.19v.81c-1.12-.06-2.18-.09-3.19-.09s-2.2,0-3.77.09v-.81L270,185a2.38,2.38,0,0,0,.81-.14.44.44,0,0,0,.19-.36,4.77,4.77,0,0,0-.38-1.21Zm-7-1.06h6.48L265.49,171Z"/><path class="cls-9" d="M294.64,179.84a12.33,12.33,0,0,0-.2,2.2,20.51,20.51,0,0,0,.2,2.66,21.19,21.19,0,0,1-3.87,1.08,22.35,22.35,0,0,1-4.13.4,11.35,11.35,0,0,1-5.33-1.19,8.52,8.52,0,0,1-3.54-3.31,10,10,0,0,1,.09-9.75,9.1,9.1,0,0,1,3.7-3.38,13.24,13.24,0,0,1,6-1.2,17.91,17.91,0,0,1,2.73.19,27.42,27.42,0,0,1,3.25.78l1.1.29a24.25,24.25,0,0,0-.54,3.81h-.81v-.85a2.87,2.87,0,0,0-.21-1.48,6.45,6.45,0,0,0-2.05-1,10.84,10.84,0,0,0-3.79-.61,7.81,7.81,0,0,0-5.8,2,8,8,0,0,0-2.19,5.86,9,9,0,0,0,2,5.89,7.75,7.75,0,0,0,6.32,2.84,12.91,12.91,0,0,0,4.52-.92c.05-.72.08-1.49.08-2.31a17.29,17.29,0,0,0-.05-1.82.43.43,0,0,0-.19-.31,6.92,6.92,0,0,0-1.34-.18l-1.52-.13v-.81c2,.09,3.42.13,4.37.13a14.45,14.45,0,0,0,2.13-.13v.65Z"/><path class="cls-9" d="M302.18,177.17v5c0,1.13,0,2,0,2.49,1.26.09,2.6.14,4,.14a18.24,18.24,0,0,0,2.42-.13,6.08,6.08,0,0,0,1.34-.33c.22-.76.44-1.7.66-2.84h.85c-.23,1.89-.35,3.15-.35,3.77l0,.59q-1.49.12-2.91.12l-2,0q-3.35-.09-4.92-.09c-1,0-2.34,0-4,.09v-.81h.4a2.89,2.89,0,0,0,1.41-.22,1.54,1.54,0,0,0,.38-1c.07-.54.1-1.74.1-3.58v-7.07c0-1.16,0-2.11-.09-2.84a5.24,5.24,0,0,0-.18-1.32.64.64,0,0,0-.27-.33,3.41,3.41,0,0,0-1.11-.21l-1-.1v-.81h1.39l1.36,0c.77,0,1.35,0,1.74,0l4.95-.08h2.34c.8,0,1.6,0,2.42.09a14,14,0,0,0-.54,4h-.88a17,17,0,0,0-.14-2.36,10.68,10.68,0,0,0-3.73-.57c-1.18,0-2.41.05-3.7.16,0,.8,0,1.61,0,2.41l0,2v2.61q1.27.09,2.25.09a14,14,0,0,0,3.47-.21c.27-.14.41-.58.41-1.32v-.84h.87c-.06,1.3-.09,2.33-.09,3.1s0,1.78.09,2.89h-.87v-.75c0-.82-.16-1.33-.48-1.51a10.71,10.71,0,0,0-3.41-.28C303.7,177.08,303,177.11,302.18,177.17Z"/><path class="cls-9" d="M187.49,203.89l-.1-2.29a9,9,0,0,0-2.41-1.13,9.07,9.07,0,0,0-2.62-.38,7.47,7.47,0,0,0-5.56,2.12,7.64,7.64,0,0,0-2.09,5.65,9.1,9.1,0,0,0,1.06,4.43,7.82,7.82,0,0,0,3,3.07,8.05,8.05,0,0,0,4.13,1.13,15.05,15.05,0,0,0,3.41-.39,7,7,0,0,0,2.54-1.24l.27.26c-.18.39-.35.79-.51,1.19a14.49,14.49,0,0,1-3,1.13,12.78,12.78,0,0,1-3.07.38A12.18,12.18,0,0,1,177,216.6a8.81,8.81,0,0,1-3.68-3.38,9.31,9.31,0,0,1-1.29-4.87,9.16,9.16,0,0,1,1.3-4.86,8.7,8.7,0,0,1,3.67-3.32A13,13,0,0,1,182.8,199a18,18,0,0,1,4.25.59c.81.19,1.46.33,2,.42a11.37,11.37,0,0,0-.67,3.89Z"/><path class="cls-9" d="M190.22,208.4a9,9,0,0,1,2.73-6.83,10.17,10.17,0,0,1,7.28-2.58,9.72,9.72,0,0,1,7,2.4,8.37,8.37,0,0,1,2.54,6.38,9.66,9.66,0,0,1-2.94,7.17,10.16,10.16,0,0,1-7.41,2.88,9.79,9.79,0,0,1-4.82-1.13,8.15,8.15,0,0,1-3.19-3.31A10.35,10.35,0,0,1,190.22,208.4Zm2.61-1.06a11.91,11.91,0,0,0,1,5.07,7.53,7.53,0,0,0,2.67,3.23,7,7,0,0,0,3.83,1.07,6.53,6.53,0,0,0,3.49-.91,6.16,6.16,0,0,0,2.35-2.73,10.31,10.31,0,0,0,.86-4.42,10.52,10.52,0,0,0-.95-4.66,6.68,6.68,0,0,0-2.59-2.92,7.54,7.54,0,0,0-3.91-1A6.92,6.92,0,0,0,196,201a6,6,0,0,0-2.35,2.53A8.3,8.3,0,0,0,192.83,207.34Z"/><path class="cls-9" d="M229.84,202,226,210q-2.14,4.48-3.53,7.83H222c-.32-.76-1.23-2.73-2.73-5.89l-4.62-9.55v10a14,14,0,0,0,.28,3.95c.19.32.76.47,1.73.47h.48v.81c-1.2-.06-2.17-.09-2.92-.09-.54,0-1.62,0-3.23.09v-.81h.83a1.88,1.88,0,0,0,1.14-.24,1.37,1.37,0,0,0,.34-.89c.11-1.2.17-2.5.17-3.89v-7.28a31.35,31.35,0,0,0-.12-3.49.89.89,0,0,0-.38-.67,2.4,2.4,0,0,0-1.3-.23H211v-.82q2.23.09,2.82.09c.49,0,1.18,0,2.08-.09q1.56,3.47,3.6,7.64l3.39,7L226,207.4q1.65-3.39,3.76-8.16c1.07.06,1.83.09,2.26.09s1.42,0,2.75-.09v.82h-.85c-.75,0-1.22.13-1.39.39a8.42,8.42,0,0,0-.25,2.82v9.41a12.15,12.15,0,0,0,.27,3.61c.17.31.67.46,1.48.46h.74v.81c-1.2-.06-2.34-.09-3.43-.09s-2.46,0-3.77.09v-.81h.85c.68,0,1.09-.15,1.23-.44a17,17,0,0,0,.21-3.82Z"/><path class="cls-9" d="M236.07,216.75h.81c.8,0,1.28-.19,1.44-.58a30.32,30.32,0,0,0,.24-5.55v-4.36a35.63,35.63,0,0,0-.21-5.68c-.14-.35-.55-.52-1.24-.52h-1v-.82q2.15.09,4.23.09c1.16,0,2.21,0,3.16-.09v.82h-1a2,2,0,0,0-1.15.21,1.88,1.88,0,0,0-.27,1.11c0,.92-.06,2.55-.06,4.91v4.44a31.45,31.45,0,0,0,.22,5.51q.21.51,1.41.51h.85v.81c-1.06-.06-2.21-.09-3.46-.09q-2.17,0-3.93.09Z"/><path class="cls-9" d="M248.42,202.15v8.9c0,2,0,3.44.11,4.23a2,2,0,0,0,.31,1.12,2.56,2.56,0,0,0,1.23.29l.83.06v.81c-.94-.06-1.78-.09-2.54-.09-.53,0-1.73,0-3.61.09v-.81h.92a1.8,1.8,0,0,0,1.1-.23,1.39,1.39,0,0,0,.32-.91c.1-1,.14-2.23.14-3.85v-6.4c0-1.2,0-2.39,0-3.57a2.09,2.09,0,0,0-.2-1,1.59,1.59,0,0,0-.5-.5,1.79,1.79,0,0,0-.94-.21h-.8v-.82c1.09.06,1.92.09,2.5.09s1.29,0,2-.09c.85,1,1.65,2,2.4,3s1.53,2,2.34,3l4.4,5.41c1.59,1.94,2.73,3.29,3.44,4v-8.26a39.54,39.54,0,0,0-.19-5.67c-.13-.32-.62-.53-1.49-.61l-1-.09v-.82c1.38.06,2.45.09,3.22.09s1.82,0,3.08-.09v.82h-1c-.79,0-1.25.26-1.37.79-.08.36-.12,2.23-.12,5.64v5.81c0,1.56.07,3.43.21,5.6a12.6,12.6,0,0,1-2-.4,1.52,1.52,0,0,1-.54-.4q-1.43-1.59-3-3.52Z"/><path class="cls-9" d="M284.5,211.47a12.41,12.41,0,0,0-.19,2.2,20.63,20.63,0,0,0,.19,2.67,22,22,0,0,1-3.87,1.08,22.35,22.35,0,0,1-4.13.4,11.47,11.47,0,0,1-5.33-1.19,8.5,8.5,0,0,1-3.53-3.31,9.91,9.91,0,0,1,.09-9.76,9,9,0,0,1,3.69-3.37,13.24,13.24,0,0,1,6-1.2,17.73,17.73,0,0,1,2.73.19,29.24,29.24,0,0,1,3.26.77l1.09.3a24.25,24.25,0,0,0-.54,3.81h-.81v-.85a2.87,2.87,0,0,0-.21-1.48,6.07,6.07,0,0,0-2-1,10.93,10.93,0,0,0-3.8-.62,7.79,7.79,0,0,0-5.8,2,8,8,0,0,0-2.18,5.86,8.92,8.92,0,0,0,2,5.89,7.71,7.71,0,0,0,6.32,2.83,12.84,12.84,0,0,0,4.51-.91c.06-.73.08-1.5.08-2.31a15,15,0,0,0-.05-1.83.42.42,0,0,0-.19-.31,7.25,7.25,0,0,0-1.34-.17l-1.52-.13v-.81c2,.08,3.43.13,4.38.13a15.93,15.93,0,0,0,2.12-.13v.64Z"/><path class="cls-9" d="M305.15,200.11a14.86,14.86,0,0,0-.39,3.55h-.89v-1a2.41,2.41,0,0,0-.27-1.36,3.27,3.27,0,0,0-1.41-.77,7.12,7.12,0,0,0-2.4-.41,4.71,4.71,0,0,0-3.23,1,3.41,3.41,0,0,0-1.18,2.68,3.21,3.21,0,0,0,.48,1.77,2.76,2.76,0,0,0,1.3,1.06,15.46,15.46,0,0,0,3.47.58,13.07,13.07,0,0,1,3.58.68,3.36,3.36,0,0,1,1.5,1.37,4.32,4.32,0,0,1,.56,2.23,5.7,5.7,0,0,1-2.16,4.45,8.52,8.52,0,0,1-5.77,1.87,12.37,12.37,0,0,1-2.49-.25,15.39,15.39,0,0,1-2.53-.74,28.58,28.58,0,0,0,.22-4h.87v.65a5.43,5.43,0,0,0,.13,1.54,1.69,1.69,0,0,0,.61.63,5.2,5.2,0,0,0,1.68.77,8.35,8.35,0,0,0,2.11.26,5.58,5.58,0,0,0,3.76-1.14,3.68,3.68,0,0,0,1.33-2.91,3.23,3.23,0,0,0-.45-1.75,2.74,2.74,0,0,0-1.26-1.06,11,11,0,0,0-3-.53,13.89,13.89,0,0,1-4-.69,3.55,3.55,0,0,1-1.63-1.46,4.74,4.74,0,0,1-.59-2.48,5.24,5.24,0,0,1,1.81-4.11,7.37,7.37,0,0,1,5-1.59,12.56,12.56,0,0,1,2.58.27A13.84,13.84,0,0,1,305.15,200.11Z"/><path class="cls-9" d="M307.22,208.4a9,9,0,0,1,2.73-6.83,10.17,10.17,0,0,1,7.28-2.58,9.76,9.76,0,0,1,7,2.4,8.36,8.36,0,0,1,2.53,6.38,9.66,9.66,0,0,1-2.94,7.17,10.13,10.13,0,0,1-7.4,2.88,9.76,9.76,0,0,1-4.82-1.13,8.11,8.11,0,0,1-3.2-3.31A10.35,10.35,0,0,1,307.22,208.4Zm2.61-1.06a12.07,12.07,0,0,0,1,5.07,7.48,7.48,0,0,0,2.68,3.23,7,7,0,0,0,3.82,1.07,6.57,6.57,0,0,0,3.5-.91,6.22,6.22,0,0,0,2.35-2.73,10.31,10.31,0,0,0,.85-4.42,10.52,10.52,0,0,0-.94-4.66,6.7,6.7,0,0,0-2.6-2.92,7.53,7.53,0,0,0-3.9-1A7,7,0,0,0,313,201a6,6,0,0,0-2.35,2.53A8.43,8.43,0,0,0,309.83,207.34Z"/><path class="cls-9" d="M328,208.4a9,9,0,0,1,2.73-6.83A10.15,10.15,0,0,1,338,199a9.72,9.72,0,0,1,7,2.4,8.37,8.37,0,0,1,2.54,6.38,9.66,9.66,0,0,1-2.94,7.17,10.16,10.16,0,0,1-7.41,2.88,9.79,9.79,0,0,1-4.82-1.13,8.09,8.09,0,0,1-3.19-3.31A10.35,10.35,0,0,1,328,208.4Zm2.61-1.06a11.91,11.91,0,0,0,1,5.07,7.46,7.46,0,0,0,2.67,3.23,7,7,0,0,0,3.83,1.07,6.56,6.56,0,0,0,3.49-.91,6.16,6.16,0,0,0,2.35-2.73,10.31,10.31,0,0,0,.86-4.42,10.52,10.52,0,0,0-.95-4.66,6.68,6.68,0,0,0-2.59-2.92,7.57,7.57,0,0,0-3.91-1,7,7,0,0,0-3.56.87,6,6,0,0,0-2.34,2.53A8.3,8.3,0,0,0,330.56,207.34Z"/><path class="cls-9" d="M352.33,202.15v8.9c0,2,0,3.44.11,4.23a2.1,2.1,0,0,0,.31,1.12,2.56,2.56,0,0,0,1.23.29l.83.06v.81c-.93-.06-1.78-.09-2.54-.09-.52,0-1.73,0-3.61.09v-.81h.93a1.79,1.79,0,0,0,1.09-.23,1.39,1.39,0,0,0,.32-.91c.1-1,.14-2.23.14-3.85v-6.4q0-1.8,0-3.57a2.36,2.36,0,0,0-.2-1,1.74,1.74,0,0,0-.51-.5,1.79,1.79,0,0,0-.94-.21h-.8v-.82c1.09.06,1.92.09,2.5.09s1.29,0,2-.09c.85,1,1.65,2,2.4,3s1.53,2,2.34,3l4.4,5.41c1.59,1.94,2.73,3.29,3.44,4v-8.26a37.86,37.86,0,0,0-.19-5.67c-.12-.32-.62-.53-1.49-.61l-1-.09v-.82c1.38.06,2.45.09,3.22.09s1.82,0,3.09-.09v.82h-1c-.8,0-1.26.26-1.38.79-.08.36-.12,2.23-.12,5.64v5.81c0,1.56.07,3.43.21,5.6a12.6,12.6,0,0,1-2-.4,1.61,1.61,0,0,1-.54-.4q-1.43-1.59-3-3.52Z"/><polygon class="cls-9" points="291.45 140.69 283.83 137.93 278.63 144.15 278.9 136.05 271.38 133.03 279.17 130.78 279.71 122.7 284.26 129.41 292.11 127.43 287.14 133.82 291.45 140.69"/><polygon class="cls-9" points="189.64 170.42 183.67 164.95 176.48 168.69 179.84 161.32 174.06 155.64 182.11 156.56 185.73 149.31 187.34 157.25 195.35 158.44 188.3 162.43 189.64 170.42"/><polygon class="cls-9" points="241.73 128.76 231 123.85 222.72 132.25 224.08 120.53 213.53 115.25 225.1 112.92 226.86 101.25 232.65 111.54 244.29 109.61 236.3 118.29 241.73 128.76"/><polygon class="cls-9" points="285.39 258.32 291.82 250.73 286.88 242.1 296.08 245.86 302.76 238.5 302.02 248.41 311.09 252.49 301.44 254.86 300.36 264.74 295.13 256.29 285.39 258.32"/><polygon class="cls-9" points="352.73 181.09 357.24 176.99 354.92 171.35 360.21 174.37 364.85 170.42 363.62 176.39 368.81 179.59 362.75 180.26 361.32 186.18 358.81 180.63 352.73 181.09"/><polygon class="cls-9" points="204.31 249.05 210.61 241.72 205.88 233.29 214.79 237.02 221.34 229.91 220.55 239.54 229.34 243.57 219.93 245.8 218.81 255.4 213.79 247.15 204.31 249.05"/><polygon class="cls-9" points="341.55 157.83 336.08 149.02 325.93 151.15 332.62 143.22 327.46 134.22 337.07 138.14 344.03 130.46 343.27 140.8 352.73 145.05 342.66 147.52 341.55 157.83"/></g></g></svg>