<?xml version="1.0" encoding="UTF-8"?><svg id="a" xmlns="http://www.w3.org/2000/svg" viewBox="0 0 512.61 512"><defs><style>.b{fill:#f29a00;}.c{fill:#fff;}.d{fill:#fdc00f;}.e{fill:#14b0bf;}.f{fill:#0f303f;}.g{fill:#2c5871;}.h{fill:#3387b5;}</style></defs><rect class="e" y=".03" width="511.93" height="511.93" rx="32.02" ry="32.02"/><rect class="h" x="211.02" y="210.37" width="301.59" height="301.59" rx="32.02" ry="32.02"/><g><circle class="e" cx="256.33" cy="256" r="256"/><path class="h" d="M437.35,437.02c51.67-51.67,76.56-119.93,74.82-187.62-.82-1.05-129.17-129.46-130.32-130.32-2.75-3.67-7.09-6.08-12.03-6.08-8.32,0-15.07,6.74-15.07,15.06,0,4.91,2.46,9.14,6.1,11.88l.86,1.1H176.98l-.87-.71c-.87-1.15-20.1-20.39-21.25-21.25-2.75-3.67-7.09-6.08-12.03-6.08-8.32,0-15.06,6.74-15.06,15.06,0,4.91,2.46,9.14,6.1,11.88,.46,.62,.88,1.27,1.43,1.81v115.03c-4.49,2.61-7.53,7.41-7.53,12.97,0,4.94,2.41,9.28,6.08,12.03,.87,1.15,82.32,82.4,82.5,82.62l-51.35,37.88-.53-.05c-9.12,0-16.52,7.39-16.52,16.52l.06,.61,94.18,92.22c70.14,3.86,141.57-20.97,195.15-74.55Z"/><rect class="d" x="150.35" y="141.04" width="211.92" height="115.75"/><rect class="b" x="256.33" y="141.04" width="105.96" height="115.75"/><path class="g" d="M377.36,256.78v-115.75c4.48-2.61,7.53-7.41,7.53-12.97,0-8.32-6.74-15.06-15.06-15.06s-15.07,6.74-15.07,15.06c0,5.56,3.05,10.37,7.53,12.97v115.75c-4.48,2.61-7.53,7.41-7.53,12.97v.06H157.9v-.06c0-5.56-3.04-10.37-7.53-12.97v-115.75c4.49-2.61,7.53-7.41,7.53-12.97,0-8.32-6.74-15.06-15.07-15.06s-15.06,6.74-15.06,15.06c0,5.56,3.05,10.37,7.53,12.97v115.75c-4.49,2.61-7.53,7.41-7.53,12.97,0,8.32,6.74,15.06,15.06,15.06h20.3l80.55,59.41-78.68,58.05-.53-.05c-9.12,0-16.52,7.39-16.52,16.52l.06,.61h32.91l.06-.61c0-2.92-.82-5.63-2.16-8.01l77.51-57.17,77.51,57.17c-1.34,2.38-2.16,5.09-2.16,8.01l.06,.61h32.91l.06-.61c0-9.12-7.39-16.52-16.52-16.52l-.53,.05-78.69-58.04,80.56-59.41h20.3c8.32,0,15.06-6.74,15.06-15.06,0-5.57-3.05-10.37-7.53-12.98Zm-121.03,78.13l-67.91-50.09h135.82l-67.91,50.09Z"/><path class="f" d="M377.36,256.78v-115.75c4.48-2.61,7.53-7.41,7.53-12.97,0-8.32-6.74-15.06-15.06-15.06s-15.07,6.74-15.07,15.06c0,5.56,3.05,10.37,7.53,12.97v115.75c-4.48,2.61-7.53,7.41-7.53,12.97v.06h-98.43v15.01h67.91l-67.91,50.09v18.65l77.51,57.17c-1.34,2.38-2.16,5.09-2.16,8.01l.06,.61h32.91l.06-.61c0-9.12-7.39-16.52-16.52-16.52l-.53,.05-78.69-58.04,80.56-59.41h20.3c8.32,0,15.06-6.74,15.06-15.06,0-5.57-3.05-10.37-7.53-12.98Z"/><path class="c" d="M189.72,210.55c0,2.6-.91,4.81-2.73,6.66-1.82,1.84-4.02,2.76-6.6,2.76h-9.32v-39.38h9.32c2.6,0,4.8,.92,6.61,2.76s2.72,4.05,2.72,6.62v20.57h0Zm-12.71,3.55h3.58c.94,0,1.74-.34,2.39-1.02,.65-.68,.97-1.48,.97-2.4v-20.6c0-.94-.33-1.75-.99-2.42-.66-.67-1.45-1.01-2.37-1.01h-3.58v27.45h0Z"/><rect class="c" x="194.94" y="180.63" width="5.93" height="39.34"/><path class="c" d="M215.53,180.63c3.31,0,5.73,.91,7.29,2.73,1.36,1.59,2.04,3.81,2.04,6.66v5.72c0,2.78-1.06,5.13-3.17,7.06l4.39,17.18h-6.42l-3.6-14.82h-3.95v14.82h-5.94v-39.34h9.36Zm3.55,9.48c0-2.28-1.13-3.42-3.39-3.42h-3.58v12.6h3.58c.94,0,1.74-.33,2.4-1.01,.66-.67,.99-1.48,.99-2.42v-5.75h0Z"/><polygon class="c" points="231.16 219.97 231.16 180.59 248.06 180.59 248.06 186.56 237.1 186.56 237.1 197.3 245.1 197.3 245.1 203.26 237.1 203.26 237.1 214.01 248.06 214.01 248.06 219.97 231.16 219.97"/><path class="c" d="M261.56,220.47c-2.62,0-4.84-.92-6.67-2.75s-2.75-4.04-2.75-6.64v-21.48c0-2.62,.92-4.84,2.76-6.68,1.84-1.83,4.06-2.74,6.66-2.74s4.83,.92,6.66,2.76c1.82,1.84,2.73,4.06,2.73,6.66v4.49h-6.15v-4.62c0-.94-.33-1.75-1-2.42s-1.48-1-2.42-1-1.74,.33-2.4,1-.99,1.48-.99,2.42v21.54c0,.94,.33,1.74,.99,2.4s1.46,.99,2.4,.99,1.75-.33,2.42-.99c.67-.66,1-1.46,1-2.4v-5.43h6.15v5.49c0,2.62-.92,4.83-2.77,6.66-1.84,1.83-4.05,2.74-6.63,2.74Z"/><polygon class="c" points="281.34 186.59 275.03 186.59 275.03 180.63 293.55 180.63 293.55 186.59 287.28 186.59 287.28 219.97 281.34 219.97 281.34 186.59"/><path class="c" d="M307.03,180.12c2.62,0,4.84,.92,6.67,2.76s2.75,4.06,2.75,6.66v21.48c0,2.62-.92,4.84-2.77,6.67-1.84,1.83-4.06,2.75-6.66,2.75s-4.83-.92-6.66-2.76-2.73-4.06-2.73-6.66v-21.48c0-2.62,.92-4.84,2.77-6.67,1.84-1.83,4.05-2.75,6.63-2.75Zm3.23,9.3c0-.94-.33-1.74-.99-2.4-.66-.66-1.46-.99-2.4-.99s-1.75,.33-2.42,.99c-.67,.66-1,1.46-1,2.4v21.54c0,.94,.33,1.75,1,2.4s1.48,.99,2.42,.99,1.74-.33,2.4-.99c.66-.66,.99-1.46,.99-2.4v-21.54Z"/><path class="c" d="M331.05,180.63c3.31,0,5.73,.91,7.29,2.73,1.36,1.59,2.04,3.81,2.04,6.66v5.72c0,2.78-1.06,5.13-3.17,7.06l4.39,17.18h-6.42l-3.6-14.82h-3.95v14.82h-5.93v-39.34h9.35Zm3.55,9.48c0-2.28-1.13-3.42-3.39-3.42h-3.58v12.6h3.58c.94,0,1.74-.33,2.4-1.01,.66-.67,.99-1.48,.99-2.42v-5.75Z"/></g></svg>