<?xml version="1.0" encoding="UTF-8"?><svg id="a" xmlns="http://www.w3.org/2000/svg" viewBox="0 0 512.31 512"><defs><style>.b{fill:#e64500;}.c{fill:#fff;}.d{fill:#fc611f;}.e{fill:#d7eced;}.f{fill:#133142;}.g{fill:#2c5871;}</style></defs><rect class="g" width="512.31" height="512" rx="32.02" ry="32.02"/><path class="f" d="M486.24,512h-155.09c-14.36,0-26-12.43-26-27.77v-206.15c0-15.34,11.64-27.77,26-27.77h155.09c14.36,0,26,12.43,26,27.73v206.15c0,15.38-11.64,27.81-26,27.81Z"/><g><circle class="g" cx="256.31" cy="256" r="256"/><path class="f" d="M511.63,273.68c-.62,0-121.12-120.14-121.12-121.14H141c0,10.75-8.71,19.47-19.47,19.47v18.79l-.54-.13-29.14,80.97c1.2,.43,2.31,.98,3.37,1.61l-.47,1.3c1.2,.43,2.31,.98,3.37,1.61l-.47,1.3c1.2,.43,2.31,.98,3.37,1.61l-.47,1.3c.76,.27,1.43,.67,2.14,1.02,2.25,4.57,2.74,10,.88,15.17,0,0,209.37,208.58,209.18,209.14,108.65-24.48,191.09-117.96,198.88-232Z"/><path class="e" d="M103.59,296.54l234.77,84.48c3.64-10.12,14.79-15.36,24.91-11.73l29.14-80.97c-10.12-3.64-15.36-14.79-11.73-24.9l-234.77-84.48c-3.64,10.12-14.79,15.37-24.91,11.73l-29.14,80.97c10.12,3.64,15.37,14.79,11.73,24.9Zm229.08-40.96l-4.92-1.77,1.77-4.93,4.92,1.77-1.77,4.93Zm-3.54,9.85l-4.92-1.77,1.77-4.92,4.92,1.77-1.77,4.92Zm-3.55,9.86l-4.92-1.77,1.77-4.92,4.92,1.77-1.77,4.92Zm-3.54,9.85l-4.92-1.77,1.77-4.92,4.92,1.77-1.77,4.92Zm-31.51,72.11l4.92,1.77-1.77,4.92-4.92-1.77,1.77-4.92Zm3.54-9.85l4.92,1.77-1.77,4.92-4.92-1.77,1.77-4.92Zm3.55-9.85l4.92,1.77-1.77,4.92-4.92-1.77,1.77-4.92Zm3.54-9.85l4.92,1.77-1.77,4.92-4.92-1.77,1.77-4.92Zm-5.82-31.16c3.38-9.4,13.75-14.28,23.15-10.89,9.4,3.38,14.28,13.75,10.89,23.15-3.02,8.38-11.58,13.13-20.06,11.67l-1.47,4.09-4.92-1.77,1.43-3.98c-8.12-4.03-12.17-13.52-9.02-22.25Z"/><path class="b" d="M145.9,178.94l146.53,52.73-42.32,117.6-146.53-52.73c3.64-10.12-1.61-21.27-11.72-24.91l29.14-80.97c10.11,3.64,21.26-1.61,24.9-11.72Z"/><path class="c" d="M121.53,172.01v86.06c10.75,0,19.47,8.71,19.47,19.47h249.51c0-10.75,8.71-19.47,19.47-19.47v-86.06c-10.75,0-19.47-8.71-19.47-19.47H141c0,10.75-8.71,19.47-19.47,19.47Zm221.16,101.87h-5.24v-5.24h5.24v5.24Zm0-10.47h-5.24v-5.23h5.24v5.23Zm0-10.47h-5.24v-5.23h5.24v5.23Zm0-10.47h-5.24v-5.23h5.24v5.23Zm-5.24-89h5.24v5.23h-5.24v-5.23Zm0,10.47h5.24v5.23h-5.24v-5.23Zm0,10.47h5.24v5.24h-5.24v-5.24Zm0,10.47h5.24v5.24h-5.24v-5.24Zm0,14.71v-4.23h5.24v4.34c8.47,1.5,14.92,8.86,14.92,17.77,0,9.99-8.1,18.09-18.09,18.09s-18.09-8.1-18.09-18.09c0-9.28,7.01-16.84,16.01-17.88Z"/><path class="d" d="M141,277.52h155.73v-124.98H141c0,10.75-8.71,19.47-19.47,19.47v86.06c10.75,0,19.47,8.72,19.47,19.46Z"/></g></svg>